<svg width="385" height="161" viewBox="0 0 385 161" fill="none" xmlns="http://www.w3.org/2000/svg">
<path d="M0.843038 82.6163C-0.694731 21.5456 71.0948 -21.3482 134.105 12.1718C154.863 23.2147 172.484 39.5698 191.431 57.4324C192.293 58.2445 192.69 58.1607 193.497 57.4063C223.133 29.6726 266.044 -12.6164 326.148 3.83692C351.443 10.7611 369.02 25.996 378.025 48.9527C408.163 125.785 321.712 189.396 247.576 147.228C228.878 136.593 212.731 121.918 193.644 103.872C192.625 102.908 192.165 103.045 191.234 103.917C169.549 124.217 146.206 146.283 117.375 155.521C58.7045 174.318 2.46066 141.862 0.843038 82.6163ZM37.5561 81.4324C39.4266 116.71 68.6576 133.155 99.8022 126.902C126.718 121.497 149.297 99.5215 168.529 81.1691C169.176 80.5508 168.813 80.2997 168.368 79.9139C151.665 65.4399 135.352 47.7598 114.795 38.6614C74.9504 21.0276 37.422 46.8881 37.5561 81.4324ZM347.364 79.9414C346.18 45.8485 317.207 27.2697 283.82 34.5397C257.551 40.2597 235.104 62.1314 216.454 79.92C215.807 80.5371 216.056 80.8253 216.586 81.2846C239.904 101.486 267.42 133.381 304.598 127.568C329.361 123.696 347.42 103.672 347.364 79.9414Z" fill="#CDD6F4"/>
</svg>
